/home/minht/3dpredictsim_tutorial/predsim_tutorial/Results/Case_13/GRF.mot
version=1
nRows=25
nColumns=19
inDegrees=yes
endheader 
time	r_ground_force_vx	r_ground_force_vy	r_ground_force_vz	r_ground_force_px	r_ground_force_py	r_ground_force_pz	l_ground_force_vx	l_ground_force_vy	l_ground_force_vz	l_ground_force_px	l_ground_force_py	l_ground_force_pz	r_ground_torque_x	r_ground_torque_y	r_ground_torque_z	l_ground_torque_x	l_ground_torque_y	l_ground_torque_z	
          0.00000000	        -34.94392269	         32.35012982	         12.54724223	          0.12766435	          0.00000000	          0.05118955	         55.80149924	        830.20055926	         11.26437885	         -0.23498932	          0.00000000	         -0.09006475	          0.00000000	         -0.00000045	          0.00000000	          0.00000000	         -8.31792813	          0.00000000	
          0.01534827	        -41.84594274	        101.09703938	         72.43750002	          0.13417564	          0.00000000	          0.04962818	         55.26678708	        806.65547598	          7.35050264	         -0.23050784	          0.00000000	         -0.09060629	          0.00000000	         -0.00003065	          0.00000000	          0.00000000	         -8.47994866	          0.00000000	
          0.03069654	          6.86385683	        220.23950114	         35.91650843	          0.13690198	          0.00000000	          0.04668442	         53.69011744	        761.11790236	          1.68828929	         -0.22506786	          0.00000000	         -0.09126424	          0.00000000	         -0.00148292	          0.00000000	          0.00000000	         -7.61753729	          0.00000000	
          0.04604481	         -0.51915922	        337.56040522	         27.61677816	          0.13781873	          0.00000000	          0.04603392	         50.44520636	        700.68427597	         -2.46687969	         -0.21820535	          0.00000000	         -0.09189894	          0.00000000	         -0.01710411	          0.00000000	          0.00000000	         -6.37866585	          0.00000000	
          0.06139309	        -16.27517709	        443.89644302	         27.54347186	          0.13957660	          0.00000000	          0.04626304	         42.64998628	        630.51752136	         -7.50935450	         -0.20916820	          0.00000000	         -0.09245670	          0.00000000	         -0.05893606	          0.00000000	          0.00000000	         -5.48801628	          0.00000000	
          0.07674136	        -34.86148803	        557.86413837	         26.70242902	          0.14464894	          0.00000000	          0.04833165	         33.63713326	        552.24841223	        -11.74196274	         -0.19735769	          0.00000000	         -0.09286026	          0.00000000	         -0.13433880	          0.00000000	          0.00000000	         -4.71651470	          0.00000000	
          0.09208963	        -51.49438684	        662.46572671	         24.31409385	          0.15024197	          0.00000000	          0.05064354	         24.97162923	        472.96756240	        -15.10448286	         -0.18258663	          0.00000000	         -0.09294814	          0.00000000	          0.02757098	          0.00000000	          0.00000000	         -3.81015796	          0.00000000	
          0.10743790	        -61.42534475	        736.59843730	         21.83966478	          0.15507428	          0.00000000	          0.05206482	         15.99752655	        403.24206959	        -17.56634482	         -0.16587205	          0.00000000	         -0.09253889	          0.00000000	          0.34491876	          0.00000000	          0.00000000	         -2.77583518	          0.00000000	
          0.12278617	        -65.71340724	        785.16336708	         19.05606346	          0.15979921	          0.00000000	          0.05270338	          8.59609422	        351.14551569	        -20.09313079	         -0.15048768	          0.00000000	         -0.09151657	          0.00000000	          0.65274079	          0.00000000	          0.00000000	         -1.86655169	          0.00000000	
          0.13813444	        -70.83213166	        826.01123669	         18.00019863	          0.16631057	          0.00000000	          0.05234793	          4.44301977	        318.46536621	        -24.00803842	         -0.14039257	          0.00000000	         -0.09006296	          0.00000000	          0.88318598	          0.00000000	          0.00000000	         -1.45709876	          0.00000000	
          0.15348272	        -71.79498096	        842.63963760	         16.41363970	          0.17207632	          0.00000000	          0.05187206	          1.16627084	        289.86661156	        -26.61081370	         -0.13185183	          0.00000000	         -0.08919031	          0.00000000	          0.73357535	          0.00000000	          0.00000000	         -1.12401438	          0.00000000	
          0.16883099	        -67.85023166	        838.37462043	         14.92408451	          0.17597379	          0.00000000	          0.05150013	         -2.25375400	        261.00033293	        -27.85520436	         -0.12351079	          0.00000000	         -0.08906026	          0.00000000	          0.04353081	          0.00000000	          0.00000000	         -0.84347308	          0.00000000	
          0.18417926	        -61.60318622	        826.75537256	         13.15477276	          0.17869616	          0.00000000	          0.05121787	         -5.08344090	        232.59758555	        -28.04210970	         -0.11538115	          0.00000000	         -0.08995789	          0.00000000	         -0.84798767	          0.00000000	          0.00000000	         -0.64174010	          0.00000000	
          0.19952753	        -54.61615930	        815.85777827	         10.98134927	          0.18081517	          0.00000000	          0.05104749	         -7.35142820	        205.50435052	        -28.27360091	         -0.10704245	          0.00000000	         -0.09126817	          0.00000000	         -1.70745017	          0.00000000	          0.00000000	         -0.45600857	          0.00000000	
          0.21487580	        -47.61466665	        807.47762477	          8.41857639	          0.18263252	          0.00000000	          0.05099875	         -9.34230993	        181.18033535	        -28.95375747	         -0.09880232	          0.00000000	         -0.09250434	          0.00000000	         -2.44068390	          0.00000000	          0.00000000	         -0.28023072	          0.00000000	
          0.23022407	        -41.11966329	        801.69524158	          5.86554690	          0.18429433	          0.00000000	          0.05107776	        -10.66941476	        161.06247573	        -30.23000883	         -0.09172452	          0.00000000	         -0.09318498	          0.00000000	         -2.97212140	          0.00000000	          0.00000000	         -0.13284702	          0.00000000	
          0.24557235	        -35.36821452	        798.28163955	          3.50014611	          0.18586892	          0.00000000	          0.05128044	        -11.14471718	        146.33567671	        -31.86269549	         -0.08739951	          0.00000000	         -0.09260928	          0.00000000	         -3.27198330	          0.00000000	          0.00000000	         -0.04723129	          0.00000000	
          0.26092062	        -30.29642530	        797.15406820	          1.44266670	          0.18740567	          0.00000000	          0.05159945	        -11.49088787	        134.03368756	        -33.05323956	         -0.08494207	          0.00000000	         -0.09130019	          0.00000000	         -3.37151257	          0.00000000	          0.00000000	         -0.00583378	          0.00000000	
          0.27626889	        -25.80515953	        798.72068592	         -0.42739960	          0.18893071	          0.00000000	          0.05202322	        -12.92661784	        121.51321233	        -33.11025415	         -0.08291007	          0.00000000	         -0.09006134	          0.00000000	         -3.30290520	          0.00000000	          0.00000000	          0.01930842	          0.00000000	
          0.29161716	        -21.90200132	        802.98604935	         -2.10835756	          0.19038978	          0.00000000	          0.05253754	        -14.80563775	        108.51161267	        -32.31334142	         -0.08092865	          0.00000000	         -0.08911869	          0.00000000	         -3.06692518	          0.00000000	          0.00000000	          0.03499733	          0.00000000	
          0.30696543	        -18.08334212	        810.24207355	         -3.78937925	          0.19167906	          0.00000000	          0.05311771	        -18.66196572	         91.56827780	        -28.75886965	         -0.07892487	          0.00000000	         -0.08838893	          0.00000000	         -2.69592857	          0.00000000	          0.00000000	          0.04075089	          0.00000000	
          0.32231370	        -13.86703541	        820.08945253	         -5.55167126	          0.19275130	          0.00000000	          0.05374052	        -22.95503547	         70.52855819	        -23.30575391	         -0.07667237	          0.00000000	         -0.08778214	          0.00000000	         -2.25140748	          0.00000000	          0.00000000	          0.03900247	          0.00000000	
          0.33766197	         -8.89504425	        832.56835591	         -7.41984568	          0.19362836	          0.00000000	          0.05438783	        -27.46699323	         46.73459538	        -16.69134454	         -0.07404531	          0.00000000	         -0.08726160	          0.00000000	         -1.79341382	          0.00000000	          0.00000000	          0.03031590	          0.00000000	
          0.35301025	         -3.38918955	        844.47724236	         -8.99395605	          0.19446696	          0.00000000	          0.05505579	          0.00000000	          0.00000000	          0.00000000	          0.00000000	          0.00000000	          0.00000000	          0.00000000	         -1.35846416	          0.00000000	          0.00000000	          0.00000000	          0.00000000	
          0.36835852	          2.33967081	        850.88698745	        -10.57035214	          0.19530240	          0.00000000	          0.05573234	          0.00000000	          0.00000000	          0.00000000	          0.00000000	          0.00000000	          0.00000000	          0.00000000	         -1.02507170	          0.00000000	          0.00000000	          0.00000000	          0.00000000	
